<?xml version="1.0" encoding="utf-8"?>
<!-- Uploaded to: SVG Repo, www.svgrepo.com, Generator: SVG Repo Mixer Tools -->
<!DOCTYPE svg PUBLIC "-//W3C//DTD SVG 1.1//EN" "http://www.w3.org/Graphics/SVG/1.1/DTD/svg11.dtd">
<svg fill="#000000" width="800px" height="800px" viewBox="0 0 1000 1000" version="1.1" xmlns="http://www.w3.org/2000/svg" xmlns:xlink="http://www.w3.org/1999/xlink"  enable-background="new 0 0 1000 1000" xml:space="preserve">
<metadata> Svg Vector Icons : http://www.onlinewebfonts.com/icon </metadata>
<g>
<g transform="translate(0.000000,511.000000) scale(0.100000,-0.100000)">
<path d="M6115.5,4990.3c-1397.4-204-2586.7-1367.1-2825-2760.4c-149.4-866.3,74.7-1781,607.8-2493.8l125.2-165.6l-302.9-304.9l-302.9-302.9l-115.1,38.4c-361.5,121.2-850.1,52.5-1183.3-169.6c-101-66.6-381.6-333.2-963.2-918.8c-799.6-805.7-821.9-829.9-902.6-997.5c-107-220.1-151.4-405.9-153.5-646.2c-2-329.1,88.8-577.5,284.7-773.4c195.9-195.9,444.2-286.7,773.4-284.7c236.3,2,418,44.4,646.2,155.5c167.6,80.8,187.8,96.9,997.5,900.6c836,831.9,937,947,1037.9,1187.3c131.3,311,145.4,708.8,34.3,997.5l-28.3,72.7l306.9,304.9l306.9,304.9l131.3-101c416-317,924.8-539.1,1459.9-636.1c260.5-48.5,785.5-48.5,1054.1,0c918.8,165.6,1720.4,694.6,2241.4,1476.1c240.3,359.4,401.8,739.1,496.7,1165.1c52.5,236.3,74.7,797.6,40.4,1052.1c-195.8,1464-1373.1,2667.5-2829,2891.6C6844.5,5014.5,6315.4,5018.6,6115.5,4990.3z M7080.8,4376.4c1128.8-197.9,1983-1054.1,2188.9-2197c44.4-252.4,44.4-751.2-2-993.5c-189.8-1005.6-854.2-1779-1789.1-2088c-284.7-92.9-460.4-123.2-807.7-137.3c-363.5-12.1-678.5,30.3-989.5,135.3C4869.6-633.5,4253.7-19.6,3987.2,782.1c-92.9,282.7-123.2,460.4-137.3,787.5c-18.2,492.7,62.6,906.7,254.4,1314.6c420,880.4,1215.6,1427.6,2233.3,1530.6C6485.1,4428.9,6899,4408.8,7080.8,4376.4z M3133-1564.3c256.5-157.5,331.2-436.2,193.9-724.9c-48.5-103-177.7-240.3-904.6-969.2c-930.9-930.9-961.2-955.1-1201.5-973.3c-179.7-12.1-274.6,22.2-405.9,153.5c-131.3,133.3-171.6,240.3-157.5,416c20.2,234.2,52.5,274.6,932.9,1159.1c446.3,448.3,848.1,842.1,896.6,876.4C2704.9-1475.5,2951.3-1451.3,3133-1564.3z"/>
<path d="M6365.9,3920.1c-470.5-36.3-971.3-242.3-1274.2-523L4972.6,3286l212-210l212-212l90.9,84.8c422,387.7,1039.9,525,1571,347.3c222.1-74.7,353.4-147.4,551.3-302.9l145.4-117.1l208,208c238.3,240.3,238.3,210,14.1,381.6C7527,3809,6965.6,3966.5,6365.9,3920.1z"/>
</g>
</g>
</svg>